<svg width="100" height="100" viewBox="0 0 100 100" fill="none" xmlns="http://www.w3.org/2000/svg">
<circle cx="50" cy="50" r="50" fill="black"/>
<ellipse cx="34.5" cy="25" rx="9.5" ry="9" fill="white" style="mix-blend-mode:difference"/>
<rect x="25" y="39" width="51" height="17" rx="4" fill="white" style="mix-blend-mode:exclusion"/>
<path d="M74 61C74 64.283 73.3663 67.5339 72.135 70.5671C70.9038 73.6002 69.0992 76.3562 66.8241 78.6777C64.5491 80.9991 61.8482 82.8406 58.8757 84.097C55.9033 85.3534 52.7174 86 49.5 86C46.2826 86 43.0967 85.3534 40.1243 84.097C37.1518 82.8406 34.4509 80.9991 32.1759 78.6777C29.9008 76.3562 28.0962 73.6002 26.865 70.5671C25.6337 67.5339 25 64.283 25 61L37.838 61C37.838 62.5627 38.1396 64.1102 38.7257 65.554C39.3117 66.9977 40.1708 68.3096 41.2537 69.4146C42.3366 70.5196 43.6222 71.3962 45.0371 71.9942C46.452 72.5922 47.9685 72.9 49.5 72.9C51.0315 72.9 52.548 72.5922 53.9629 71.9942C55.3778 71.3962 56.6634 70.5196 57.7463 69.4146C58.8292 68.3096 59.6883 66.9977 60.2743 65.554C60.8604 64.1102 61.162 62.5627 61.162 61H74Z" fill="white" style="mix-blend-mode:exclusion"/>
</svg>
